<svg xmlns="http://www.w3.org/2000/svg" width="48" height="48" viewBox="0 0 48 48">
    <path fill="#636363" fill-rule="evenodd" d="M27.512 12.069c-1.19-.511-3.59-.569-3.59-.569-4.752 0-6.337 1.46-6.337 1.46l2.312 1.641c1.928 1.366 3.056 3.503 3.054 5.659 0 .652-.101 1.31-.317 1.96-.455 1.384-1.35 2.501-2.519 3.293-1.168.786-2.615 1.233-4.136 1.233-.225 0-.45-.008-.676-.03l-2.803-.242s2.3 5.726 7.782 7.45a11.69 11.69 0 0 0 3.616.576 11.699 11.699 0 0 0 6.738-2.143 11.467 11.467 0 0 0 4.864-9.363c0-2.422-.775-4.752-2.16-6.679-1.383-1.927-3.47-3.234-5.828-4.246z"/>
</svg>
