<svg xmlns="http://www.w3.org/2000/svg" width="48" height="48" viewBox="0 0 48 48">
    <g fill="none" fill-rule="evenodd" transform="translate(9 8)">
        <path fill="#FF9103" d="M16.7 26.053c-.366.043-1.203.07-1.203.07-.354 0-.849-.02-1.197-.054v3.715c.006.628.583 1.137 1.2 1.137 0 0 1.204-.081 1.2-1.152v-3.716zm0-24.914C16.693.509 16.117 0 15.5 0c-.625.003-1.207.518-1.2 1.15v3.413c.367-.043.824-.066 1.2-.068.381 0 .828.022 1.2.06V1.14zM8.858 23.8c-.289-.23-.9-.802-.9-.802-.25-.25-.586-.614-.808-.885L4.523 24.74c-.44.45-.392 1.217.045 1.653 0 0 .909.794 1.663.034l2.627-2.628zM26.476 6.181c.44-.45.393-1.217-.044-1.654-.443-.44-1.22-.486-1.662-.035l-2.413 2.413c.29.23.63.537.897.8.27.27.57.602.806.892l2.416-2.416zM4.907 16.66c-.042-.366-.07-1.203-.07-1.203 0-.354.02-.848.055-1.196H1.176c-.628.006-1.137.583-1.137 1.2 0 0 .082 1.204 1.153 1.2h3.715zm24.915 0c.63-.006 1.139-.582 1.139-1.2-.003-.624-.519-1.206-1.15-1.2h-3.413c.043.368.066.825.067 1.2 0 .382-.022.83-.06 1.2h3.417zM7.161 8.82c.23-.29.802-.9.802-.9.25-.251.613-.587.885-.809L6.22 4.484c-.448-.44-1.216-.392-1.652.044 0 0-.794.91-.034 1.664L7.16 8.819zM24.78 26.435c.45.441 1.217.393 1.653-.043.44-.443.487-1.22.035-1.662l-2.413-2.413c-.229.29-.536.63-.8.896-.27.27-.602.57-.891.806l2.416 2.416z"/>
        <circle cx="15.5" cy="15.5" r="9.5" fill="#FF950C"/>
    </g>
</svg>
