<svg xmlns="http://www.w3.org/2000/svg" width="48" height="48" viewBox="0 0 48 48">
    <g fill="none" fill-rule="evenodd">
        <path fill="#1C7499" d="M7.148 39c1.273 0 2.225-.226 2.876-.751.613-.489.953-1.24.953-2.244 0-1.023-.34-1.765-.953-2.254-.65-.525-1.603-.751-2.876-.751H5v6h2.148zm-.807-1.086v-3.828h.768c.943 0 1.584.136 1.982.498.33.298.496.75.496 1.411s-.165 1.123-.496 1.421c-.398.362-1.04.498-1.982.498H6.34zm9.7.96c.077.126.116.126.242.126h1.35l-1.467-2.262c.632-.371 1.07-.987 1.07-1.783 0-1.421-.972-1.955-2.712-1.955h-2.536v6h1.34v-2.018h1.352c.145 0 .174 0 .252.118l1.108 1.773zm-2.712-2.933V34.06h1.234c.544 0 .865.072 1.069.235.165.145.233.353.233.66 0 .327-.078.625-.223.824-.088.118-.195.163-.38.163H13.33zM18.538 39h1.34v-6h-1.34v6zm5.88-4.95c-.253.29-.642.724-1.021 1.194l-2.235 2.742c-.107.145-.127.2-.127.326V39H26.1v-1.05h-3.421c.301-.335.69-.796 1.01-1.194l2.236-2.742c.097-.127.136-.19.136-.317V33h-5.054v1.05h3.411zm5.986 0c-.253.29-.641.724-1.02 1.194l-2.236 2.742c-.107.145-.126.2-.126.326V39h5.063v-1.05h-3.42c.3-.335.69-.796 1.01-1.194l2.235-2.742c.097-.127.136-.19.136-.317V33h-5.053v1.05h3.41zm4.14-1.05h-1.341v6h4.519v-1.05h-3.178V33zm4.179 0v6h4.742v-1.05h-3.401v-1.493h2.984v-1.04h-2.984V34.05h3.304V33h-4.645z"/>
        <path fill="#959595" d="M14.713 29C10.46 29 7 26.047 7 22.145c0-3.684 3.146-6.778 7.162-7.044.998-.072 2.263.15 2.263.15.84.237 2.008.623 2.803 1.273a.468.468 0 0 0 .69-.1.553.553 0 0 0-.092-.74c-.718-.586-1.651-.978-2.464-1.246l.015-.11c.48-3.53 3.696-6.122 7.649-6.165l.11-.002c3.904.003 7.13 2.486 8.24 6.331-2.568.787-4.435 2.696-5.16 5.306-.078.279.07.573.331.656a.459.459 0 0 0 .141.023.498.498 0 0 0 .472-.378c.673-2.423 2.413-4.093 4.897-4.705l.488-.112c1.495-.385 2.971-.17 2.971-.17 4.21.513 5.513 4.437 5.483 6.261C42.935 26.525 38.592 29 34.334 29H14.713z"/>
    </g>
</svg>
