<svg xmlns="http://www.w3.org/2000/svg" width="48" height="48" viewBox="0 0 48 48">
    <g fill="none" fill-rule="evenodd">
        <path fill="#959595" d="M14.713 29C10.46 29 7 26.187 7 22.471c0-3.508 3.146-6.455 7.162-6.708.998-.068 2.263.142 2.263.142.84.227 2.008.594 2.803 1.213a.483.483 0 0 0 .69-.095.51.51 0 0 0-.092-.704c-.718-.56-1.651-.932-2.464-1.187l.015-.106c.48-3.361 3.696-5.83 7.649-5.87l.11-.002c3.904.002 7.13 2.367 8.24 6.03-2.568.748-4.435 2.567-5.16 5.052a.505.505 0 0 0 .472.646.494.494 0 0 0 .472-.359c.673-2.308 2.413-3.898 4.897-4.481l.488-.106c1.495-.368 2.971-.164 2.971-.164 4.21.49 5.513 4.227 5.483 5.964C42.935 26.643 38.592 29 34.334 29H14.713z"/>
        <path fill="#636363" d="M32.576 33.86l-2.162.528.51-2.159a.938.938 0 0 0-.101-.67.931.931 0 0 0-1.275-.335.955.955 0 0 0-.445.593l-.474 2.012-1.484-1.448c-.695-.62-1.316.022-1.316.022-.622.643.016 1.322.016 1.322l1.467 1.425-2.085.516c-.562.246-.678.688-.572 1.155 0 0 .195.757 1.114.63l2.129-.52-.507 2.16c-.112.489.248.99.69 1.076 0 0 .187.03.2.027.546-.02.88-.424.92-.669l.49-2.06 1.5 1.46c.648.575 1.307-.043 1.307-.043.584-.667.044-1.222.044-1.222a149.956 149.956 0 0 0-1.517-1.497l1.991-.493s.806-.223.686-1.075c0 0-.261-.913-1.126-.735z"/>
        <path fill="#1C7499" d="M13.038 40.052c.235 1.225 1.459 2.148 2.848 2.148.803 0 1.534-.329 2.057-.926.666-.764 1.314-2.338.615-5.504l-.126-.565-.575.198c-4.836 1.66-4.981 3.804-4.819 4.65"/>
    </g>
</svg>
