<svg xmlns="http://www.w3.org/2000/svg" width="48" height="48" viewBox="0 0 48 48">
    <g fill="none" fill-rule="evenodd">
        <path fill="#636363" d="M13.16 14.245C9.064 15.072 6 18.275 6 22.121c0 1.024.217 1.993.614 2.878a7.404 7.404 0 0 1-1.78-.336l.069.022-.07-.022C1.649 24.114 0 20.123 0 20.123s1.099.166 2.161.166c.945 0 1.844-.272 2.57-.751.726-.482 1.281-1.163 1.564-2.006.134-.396.196-.797.196-1.195.002-1.313-.699-2.615-1.897-3.448l-1.436-1S4.396 11 7.095 11c0 0 1.49.054 2.23.347 1.478.584 2.76 1.413 3.62 2.587.075.102.146.206.215.311z"/>
        <path fill="#959595" d="M14.713 29C10.46 29 7 26.047 7 22.145c0-3.684 3.146-6.778 7.162-7.044.998-.072 2.263.15 2.263.15.84.237 2.008.623 2.803 1.273a.468.468 0 0 0 .69-.1.553.553 0 0 0-.092-.74c-.718-.586-1.651-.978-2.464-1.246l.015-.11c.48-3.53 3.696-6.122 7.649-6.165l.11-.002c3.904.003 7.13 2.486 8.24 6.331-2.568.787-4.435 2.696-5.16 5.306-.078.279.07.573.331.656a.459.459 0 0 0 .141.023.498.498 0 0 0 .472-.378c.673-2.423 2.413-4.093 4.897-4.705l.488-.112c1.495-.385 2.971-.17 2.971-.17 4.21.513 5.513 4.437 5.483 6.261C42.935 26.525 38.592 29 34.334 29H14.713z"/>
        <path fill="#666" d="M18.038 37.302h-2.985V40h-1.325v-6.365h1.325v2.515h2.985v-2.515h1.325V40h-1.325v-2.698zm6.72 1.421h-2.803l-.422 1.162c-.02.051-.039.083-.058.096-.019.013-.057.019-.115.019h-1.22l2.449-6.365h1.305c.058 0 .098.008.12.024a.28.28 0 0 1 .072.101L26.66 40h-1.257a.263.263 0 0 1-.12-.02c-.023-.012-.044-.044-.063-.095l-.46-1.162zm-2.41-1.065h1.988l-.442-1.143a60.985 60.985 0 0 1-.336-.878 12.02 12.02 0 0 1-.25-.725c-.031.096-.07.214-.114.355a24.215 24.215 0 0 1-.327.95c-.064.173-.125.343-.182.51l-.336.93zm5.118-4.023h1.324V40h-1.324v-6.365zm3.984 5.251h3.139V40h-4.464v-6.365h1.325v5.251z"/>
    </g>
</svg>
