<svg xmlns="http://www.w3.org/2000/svg" width="48" height="48" viewBox="0 0 48 48">
    <g fill="none" fill-rule="evenodd">
        <path fill="#FF9103" d="M31.015 2.008c-.005-.447-.429-.808-.883-.808-.459.002-.887.368-.882.816v2.422c.27-.03.606-.046.882-.048.28 0 .61.016.883.043V2.008zM37.943 5.409c.313-.32.269-.875-.052-1.195-.326-.324-.888-.368-1.201-.047l-1.713 1.712c.213.17.462.396.658.59.198.199.42.442.594.655l1.714-1.715zM40.296 12.854c.447-.005.808-.428.808-.882-.001-.46-.367-.887-.816-.882h-2.422c.03.27.047.606.048.882 0 .28-.015.61-.043.882h2.425zM24.193 7.19c.169-.211.59-.66.59-.66a10.3 10.3 0 0 1 .65-.595l-1.865-1.864c-.318-.312-.873-.268-1.194.053 0 0-.585.667-.046 1.202l1.865 1.865z"/>
        <path fill="#FF950C" d="M25.267 7.162a7.095 7.095 0 0 1 4.865-1.904c3.858 0 6.986 3.019 6.986 6.742 0 .716-.116 1.407-.33 2.054a8.953 8.953 0 0 0-2.427.244l-.024-.083c-1.221-4.229-4.777-6.995-9.07-7.053z"/>
        <path fill="#959595" d="M14.713 29C10.46 29 7 26.047 7 22.145c0-3.684 3.146-6.778 7.162-7.044.998-.072 2.263.15 2.263.15.84.237 2.008.623 2.803 1.273a.468.468 0 0 0 .69-.1.553.553 0 0 0-.092-.74c-.718-.586-1.651-.978-2.464-1.246l.015-.11c.48-3.53 3.696-6.122 7.649-6.165l.11-.002c3.904.003 7.13 2.486 8.24 6.331-2.568.787-4.435 2.696-5.16 5.306-.078.279.07.573.331.656a.459.459 0 0 0 .141.023.498.498 0 0 0 .472-.378c.673-2.423 2.413-4.093 4.897-4.705l.488-.112c1.495-.385 2.971-.17 2.971-.17 4.21.513 5.513 4.437 5.483 6.261C42.935 26.525 38.592 29 34.334 29H14.713z"/>
        <path fill="#666" d="M18.038 37.302h-2.985V40h-1.325v-6.365h1.325v2.515h2.985v-2.515h1.325V40h-1.325v-2.698zm6.72 1.421h-2.803l-.422 1.162c-.02.051-.039.083-.058.096-.019.013-.057.019-.115.019h-1.22l2.449-6.365h1.305c.058 0 .098.008.12.024a.28.28 0 0 1 .072.101L26.66 40h-1.257a.263.263 0 0 1-.12-.02c-.023-.012-.044-.044-.063-.095l-.46-1.162zm-2.41-1.065h1.988l-.442-1.143a60.985 60.985 0 0 1-.336-.878 12.02 12.02 0 0 1-.25-.725c-.031.096-.07.214-.114.355a24.215 24.215 0 0 1-.327.95c-.064.173-.125.343-.182.51l-.336.93zm5.118-4.023h1.324V40h-1.324v-6.365zm3.984 5.251h3.139V40h-4.464v-6.365h1.325v5.251z"/>
    </g>
</svg>
