<svg xmlns="http://www.w3.org/2000/svg" width="48" height="48" viewBox="0 0 48 48">
    <g fill="none" fill-rule="evenodd">
        <path fill="#636363" d="M13.16 14.245C9.064 15.072 6 18.275 6 22.121c0 1.024.217 1.993.614 2.878a7.404 7.404 0 0 1-1.78-.336l.069.022-.07-.022C1.649 24.114 0 20.123 0 20.123s1.099.166 2.161.166c.945 0 1.844-.272 2.57-.751.726-.482 1.281-1.163 1.564-2.006.134-.396.196-.797.196-1.195.002-1.313-.699-2.615-1.897-3.448l-1.436-1S4.396 11 7.095 11c0 0 1.49.054 2.23.347 1.478.584 2.76 1.413 3.62 2.587.075.102.146.206.215.311z"/>
        <path fill="#959595" d="M33.858 15.23C32.693 11.46 29.312 9 25.12 9c-4.354.042-7.758 2.682-8.274 6.165-.348-.06-.7-.092-1.057-.11a6.715 6.715 0 0 0-1.13 0c-4.275.26-7.66 3.326-7.66 7.066C7 26.029 10.7 29 15.245 29h18.602c4.49 0 9.08-2.453 9.153-7.546.03-1.89-1.425-5.869-6.034-6.389a9.369 9.369 0 0 0-3.108.165z"/>
        <path fill="#FFF" d="M15.04 27.442c-2.042 0-5.88-1.642-6.24-4.547-.36-2.906 1.96-6.063 5.4-6.063.091 0 3.6-.253 4.8 2.273.043.038.197.221.24.253.682.497 1.278.104 1.56-.253.3-.379.026-1.105-.469-1.49C19 16.579 19 16.579 18.801 16.072c.215-2.845 2.928-5.392 6.236-5.43 3.387-.001 6.267 2.077 7.163 5.305-1.745.902-3.462 1.91-4.218 5.544-.132.634.035 1.28.618 1.443.092.028.342.042.433.042.483 0 .767-.809.767-1.344 0-2.527 3.186-4.625 4.8-5.053 1.2-.136 7.2-.344 6.6 5.796-.423 4.328-4.8 5.067-7.013 5.067H15.04z"/>
        <path fill="#636363" d="M32.576 33.86l-2.162.528.51-2.159a.938.938 0 0 0-.101-.67.931.931 0 0 0-1.275-.335.955.955 0 0 0-.445.593l-.474 2.012-1.484-1.448c-.695-.62-1.316.022-1.316.022-.622.643.016 1.322.016 1.322l1.467 1.425-2.085.516c-.562.246-.678.688-.572 1.155 0 0 .195.757 1.114.63l2.129-.52-.507 2.16c-.112.489.248.99.69 1.076 0 0 .187.03.2.027.546-.02.88-.424.92-.669l.49-2.06 1.5 1.46c.648.575 1.307-.043 1.307-.043.584-.667.044-1.222.044-1.222a149.956 149.956 0 0 0-1.517-1.497l1.991-.493s.806-.223.686-1.075c0 0-.261-.913-1.126-.735z"/>
    </g>
</svg>
