<svg xmlns="http://www.w3.org/2000/svg" width="48" height="48" viewBox="0 0 48 48">
    <g fill="none" fill-rule="evenodd">
        <path fill="#959595" d="M33.858 15.23C32.693 11.46 29.312 9 25.12 9c-4.354.042-7.758 2.682-8.274 6.165-.348-.06-.7-.092-1.057-.11a6.715 6.715 0 0 0-1.13 0c-4.275.26-7.66 3.326-7.66 7.066C7 26.029 10.7 29 15.245 29h18.602c4.49 0 9.08-2.453 9.153-7.546.03-1.89-1.425-5.869-6.034-6.389a9.369 9.369 0 0 0-3.108.165z"/>
        <path fill="#FFF" d="M15.04 27.442c-2.042 0-5.88-1.642-6.24-4.547-.36-2.906 1.96-6.063 5.4-6.063.091 0 3.6-.253 4.8 2.273.043.038.197.221.24.253.682.497 1.278.104 1.56-.253.3-.379.026-1.105-.469-1.49C19 16.579 19 16.579 18.801 16.072c.215-2.845 2.928-5.392 6.236-5.43 3.387-.001 6.267 2.077 7.163 5.305-1.745.902-3.462 1.91-4.218 5.544-.132.634.035 1.28.618 1.443.092.028.342.042.433.042.483 0 .767-.809.767-1.344 0-2.527 3.186-4.625 4.8-5.053 1.2-.136 7.2-.344 6.6 5.796-.423 4.328-4.8 5.067-7.013 5.067H15.04z"/>
        <path fill="#FF9103" d="M32.015 1.808C32.01 1.361 31.586 1 31.132 1c-.459.002-.887.368-.882.816v2.422c.27-.03.606-.046.882-.048.28 0 .61.016.883.043V1.808zM38.943 5.409c.313-.32.269-.875-.052-1.195-.326-.324-.888-.368-1.201-.047l-1.713 1.712c.213.17.462.396.658.59.198.199.42.442.594.655l1.714-1.715zM41.296 12.854c.447-.005.808-.428.808-.882-.001-.46-.367-.887-.816-.882h-2.422c.03.27.047.606.048.882 0 .28-.015.61-.043.882h2.425zM25.193 7.28c.169-.211.59-.66.59-.66a10.3 10.3 0 0 1 .65-.595L24.568 4.16c-.318-.311-.873-.267-1.194.054 0 0-.585.667-.046 1.202l1.865 1.864z"/>
        <ellipse cx="31.132" cy="12" rx="8.456" ry="8.161"/>
        <path fill="#FF950C" d="M25.504 8.006c1.272-1.666 3.32-2.748 5.628-2.748 3.858 0 6.986 3.019 6.986 6.742 0 .76-.13 1.491-.371 2.173a10.245 10.245 0 0 0-3.232-.074c-1.476-3.625-4.893-5.956-9.011-6.093z"/>
        <path fill="#636363" d="M32.576 33.86l-2.162.528.51-2.159a.938.938 0 0 0-.101-.67.931.931 0 0 0-1.275-.335.955.955 0 0 0-.445.593l-.474 2.012-1.484-1.448c-.695-.62-1.316.022-1.316.022-.622.643.016 1.322.016 1.322l1.467 1.425-2.085.516c-.562.246-.678.688-.572 1.155 0 0 .195.757 1.114.63l2.129-.52-.507 2.16c-.112.489.248.99.69 1.076 0 0 .187.03.2.027.546-.02.88-.424.92-.669l.49-2.06 1.5 1.46c.648.575 1.307-.043 1.307-.043.584-.667.044-1.222.044-1.222a149.956 149.956 0 0 0-1.517-1.497l1.991-.493s.806-.223.686-1.075c0 0-.261-.913-1.126-.735z"/>
    </g>
</svg>
