<svg xmlns="http://www.w3.org/2000/svg" width="48" height="48" viewBox="0 0 48 48">
    <g fill="none" fill-rule="evenodd">
        <path fill="#1B1B1B" d="M14.713 29C10.46 29 7 26.047 7 22.145c0-3.684 3.146-6.778 7.162-7.044.998-.072 2.263.15 2.263.15.84.237 2.008.623 2.803 1.273a.468.468 0 0 0 .69-.1.553.553 0 0 0-.092-.74c-.718-.586-1.651-.978-2.464-1.246l.015-.11c.48-3.53 3.696-6.122 7.649-6.165l.11-.002c3.904.003 7.13 2.486 8.24 6.331-2.568.787-4.435 2.696-5.16 5.306-.078.279.07.573.331.656a.459.459 0 0 0 .141.023.498.498 0 0 0 .472-.378c.673-2.423 2.413-4.093 4.897-4.705l.488-.112c1.495-.385 2.971-.17 2.971-.17 4.21.513 5.513 4.437 5.483 6.261C42.935 26.525 38.592 29 34.334 29H14.713z"/>
        <path fill="#636363" d="M20.576 35.86l-2.162.528.51-2.159a.938.938 0 0 0-.101-.67.931.931 0 0 0-1.275-.335.955.955 0 0 0-.445.593l-.474 2.012-1.484-1.448c-.695-.62-1.316.022-1.316.022-.622.643.016 1.322.016 1.322l1.467 1.425-2.085.516c-.562.246-.678.688-.572 1.155 0 0 .195.757 1.114.63l2.129-.52-.507 2.16c-.112.489.248.99.69 1.076 0 0 .187.03.2.027.546-.02.88-.424.92-.669l.49-2.06 1.5 1.46c.648.575 1.307-.043 1.307-.043.584-.667.044-1.222.044-1.222a149.956 149.956 0 0 0-1.517-1.497l1.991-.493s.806-.223.686-1.075c0 0-.261-.913-1.126-.735zM32.576 33.86l-2.162.528.51-2.159a.938.938 0 0 0-.101-.67.931.931 0 0 0-1.275-.335.955.955 0 0 0-.445.593l-.474 2.012-1.484-1.448c-.695-.62-1.316.022-1.316.022-.622.643.016 1.322.016 1.322l1.467 1.425-2.085.516c-.562.246-.678.688-.572 1.155 0 0 .195.757 1.114.63l2.129-.52-.507 2.16c-.112.489.248.99.69 1.076 0 0 .187.03.2.027.546-.02.88-.424.92-.669l.49-2.06 1.5 1.46c.648.575 1.307-.043 1.307-.043.584-.667.044-1.222.044-1.222a149.956 149.956 0 0 0-1.517-1.497l1.991-.493s.806-.223.686-1.075c0 0-.261-.913-1.126-.735z"/>
    </g>
</svg>
