<svg xmlns="http://www.w3.org/2000/svg" width="48" height="48" viewBox="0 0 48 48">
    <g fill="none" fill-rule="evenodd">
        <path fill="#636363" d="M13.16 14.245C9.064 15.072 6 18.275 6 22.121c0 1.024.217 1.993.614 2.878a7.404 7.404 0 0 1-1.78-.336l.069.022-.07-.022C1.649 24.114 0 20.123 0 20.123s1.099.166 2.161.166c.945 0 1.844-.272 2.57-.751.726-.482 1.281-1.163 1.564-2.006.134-.396.196-.797.196-1.195.002-1.313-.699-2.615-1.897-3.448l-1.436-1S4.396 11 7.095 11c0 0 1.49.054 2.23.347 1.478.584 2.76 1.413 3.62 2.587.075.102.146.206.215.311z"/>
        <path fill="#FF9103" d="M22.51 31.34l4.855 1.963L22 40l11-6.818-3.87-1.842L30.657 27z"/>
        <path fill="#1B1B1B" d="M31.013 29.161l1.44-4.12-7.677 4.12H14.713C10.46 29.161 7 26.185 7 22.253c0-3.712 3.146-6.83 7.162-7.098.998-.072 2.263.15 2.263.15.84.24 2.008.629 2.803 1.284a.466.466 0 0 0 .69-.1.56.56 0 0 0-.092-.746c-.718-.592-1.651-.986-2.464-1.256l.015-.112c.48-3.556 3.696-6.169 7.649-6.212l.11-.002c3.904.003 7.13 2.505 8.24 6.38-2.568.793-4.435 2.717-5.16 5.347-.078.281.07.578.331.662a.456.456 0 0 0 .141.022.5.5 0 0 0 .472-.38c.673-2.442 2.413-4.125 4.897-4.742l.488-.112c1.495-.389 2.971-.173 2.971-.173 4.21.518 5.513 4.473 5.483 6.31-.064 5.193-4.407 7.686-8.665 7.686h-3.32z"/>
        <path fill="#1C7499" d="M13.038 40.052c.235 1.225 1.459 2.148 2.848 2.148.803 0 1.534-.329 2.057-.926.666-.764 1.314-2.338.615-5.504l-.126-.565-.575.198c-4.836 1.66-4.981 3.804-4.819 4.65"/>
    </g>
</svg>
