<svg xmlns="http://www.w3.org/2000/svg" width="48" height="48" viewBox="0 0 48 48">
    <g fill="none" fill-rule="evenodd">
        <path fill="#FF9103" d="M31.015 2.008c-.005-.447-.429-.808-.883-.808-.459.002-.887.368-.882.816v2.422c.27-.03.606-.046.882-.048.28 0 .61.016.883.043V2.008zM37.943 5.409c.313-.32.269-.875-.052-1.195-.326-.324-.888-.368-1.201-.047l-1.713 1.712c.213.17.462.396.658.59.198.199.42.442.594.655l1.714-1.715zM40.296 12.854c.447-.005.808-.428.808-.882-.001-.46-.367-.887-.816-.882h-2.422c.03.27.047.606.048.882 0 .28-.015.61-.043.882h2.425zM24.193 7.19c.169-.211.59-.66.59-.66a10.3 10.3 0 0 1 .65-.595l-1.865-1.864c-.318-.312-.873-.268-1.194.053 0 0-.585.667-.046 1.202l1.865 1.865z"/>
        <path fill="#FF950C" d="M25.267 7.162a7.095 7.095 0 0 1 4.865-1.904c3.858 0 6.986 3.019 6.986 6.742 0 .716-.116 1.407-.33 2.054a8.953 8.953 0 0 0-2.427.244l-.024-.083c-1.221-4.229-4.777-6.995-9.07-7.053z"/>
        <path fill="#FF9103" d="M22.51 31.34l4.855 1.963L22 40l11-6.818-3.87-1.842L30.657 27z"/>
        <path fill="#1B1B1B" d="M31.013 29.161l1.44-4.12-7.677 4.12H14.713C10.46 29.161 7 26.185 7 22.253c0-3.712 3.146-6.83 7.162-7.098.998-.072 2.263.15 2.263.15.84.24 2.008.629 2.803 1.284a.466.466 0 0 0 .69-.1.56.56 0 0 0-.092-.746c-.718-.592-1.651-.986-2.464-1.256l.015-.112c.48-3.556 3.696-6.169 7.649-6.212l.11-.002c3.904.003 7.13 2.505 8.24 6.38-2.568.793-4.435 2.717-5.16 5.347-.078.281.07.578.331.662a.456.456 0 0 0 .141.022.5.5 0 0 0 .472-.38c.673-2.442 2.413-4.125 4.897-4.742l.488-.112c1.495-.389 2.971-.173 2.971-.173 4.21.518 5.513 4.473 5.483 6.31-.064 5.193-4.407 7.686-8.665 7.686h-3.32z"/>
        <path fill="#1C7499" d="M13.038 40.052c.235 1.225 1.459 2.148 2.848 2.148.803 0 1.534-.329 2.057-.926.666-.764 1.314-2.338.615-5.504l-.126-.565-.575.198c-4.836 1.66-4.981 3.804-4.819 4.65"/>
    </g>
</svg>
