<svg xmlns="http://www.w3.org/2000/svg" xmlns:xlink="http://www.w3.org/1999/xlink" width="48" height="48" viewBox="0 0 48 48">
    <defs>
        <linearGradient id="b" x1="50%" x2="50%" y1="0%" y2="100%">
            <stop offset="0%" stop-color="#FFF" stop-opacity=".5"/>
            <stop offset="100%" stop-opacity=".5"/>
        </linearGradient>
        <linearGradient id="c" x1="50%" x2="50%" y1="0%" y2="100%">
            <stop offset="0%" stop-color="#575756"/>
            <stop offset="100%" stop-opacity=".5"/>
        </linearGradient>
        <path id="a" d="M7.671 11.376V8.52h.534c.698 0 1.187.064 1.513.32.28.216.444.568.444 1.112 0 .544-.163.888-.444 1.104-.326.256-.815.32-1.513.32h-.534zm.58 1.224c1.231 0 2.191-.232 2.825-.792.48-.424.761-1.04.761-1.856 0-.816-.28-1.44-.76-1.864-.635-.56-1.595-.792-2.826-.792H6.059V12.6H8.25zm9.917-5.304h-1.585v3.12c0 .312-.073.512-.245.648-.19.152-.534.24-.942.24-.407 0-.77-.088-.96-.24-.172-.136-.244-.336-.244-.648v-3.12H12.58v3.016c0 .776.217 1.344.688 1.744.462.392 1.177.624 2.11.624.933 0 1.649-.232 2.11-.624.471-.4.68-.968.68-1.744V7.296zm1.06 3.832l-.381.944c.706.352 1.712.608 2.68.608 1.486 0 2.5-.656 2.5-1.8 0-.952-.643-1.304-2.173-1.632l-.562-.12c-.561-.12-.788-.208-.788-.384 0-.232.317-.272.996-.272.336 0 .816.032 1.214.064l.734.064.262-.976c-.634-.264-1.485-.408-2.21-.408-1.467 0-2.554.48-2.554 1.56 0 .96.78 1.368 2.056 1.64l.598.128c.607.128.851.208.851.448 0 .288-.326.432-.95.432-.39 0-.97-.064-1.64-.184l-.634-.112zm7.045 1.472h1.612V8.472h2.01V7.296h-5.632v1.176h2.01V12.6z"/>
    </defs>
    <g fill="none" fill-rule="evenodd">
        <path fill="#FFF" stroke="#575756" stroke-width="2" d="M7 15h34v18H7z"/>
        <g transform="translate(6 14)">
            <use fill="#D8D8D8" xlink:href="#a"/>
            <use fill="url(#b)" xlink:href="#a"/>
            <use fill="url(#b)" xlink:href="#a"/>
            <use fill="url(#b)" xlink:href="#a"/>
            <use fill="url(#c)" xlink:href="#a"/>
        </g>
    </g>
</svg>
