<svg xmlns="http://www.w3.org/2000/svg" width="48" height="48" viewBox="0 0 48 48">
    <g fill="none" fill-rule="evenodd">
        <path fill="#959595" d="M33.858 15.23C32.693 11.46 29.312 9 25.12 9c-4.354.042-7.758 2.682-8.274 6.165-.348-.06-.7-.092-1.057-.11a6.715 6.715 0 0 0-1.13 0c-4.275.26-7.66 3.326-7.66 7.066C7 26.029 10.7 29 15.245 29h18.602c4.49 0 9.08-2.453 9.153-7.546.03-1.89-1.425-5.869-6.034-6.389a9.369 9.369 0 0 0-3.108.165z"/>
        <path fill="#FFF" d="M15.04 27.442c-2.042 0-5.88-1.642-6.24-4.547-.36-2.906 1.96-6.063 5.4-6.063.091 0 3.6-.253 4.8 2.273.043.038.197.221.24.253.682.497 1.278.104 1.56-.253.3-.379.026-1.105-.469-1.49C19 16.579 19 16.579 18.801 16.072c.215-2.845 2.928-5.392 6.236-5.43 3.387-.001 6.267 2.077 7.163 5.305-1.745.902-3.462 1.91-4.218 5.544-.132.634.035 1.28.618 1.443.092.028.342.042.433.042.483 0 .767-.809.767-1.344 0-2.527 3.186-4.625 4.8-5.053 1.2-.136 7.2-.344 6.6 5.796-.423 4.328-4.8 5.067-7.013 5.067H15.04z"/>
        <path fill="#858585" d="M18.94 34.102c-.138 0-.177.031-.266.154l-2.11 2.808h-.06l-2.15-2.808c-.088-.123-.127-.154-.264-.154H13v6.796h1.306v-4.653h.02l1.629 2.152c.069.092.118.113.236.113h.805l1.688-2.265h.02v4.653h1.315v-6.796h-1.08zm2.444 6.796h1.355v-6.796h-1.355v6.796zm2.415-.615c.677.389 1.747.717 2.611.717 1.57 0 2.474-.84 2.474-2.152 0-1.035-.53-1.579-2.1-2.05l-.61-.185c-.687-.205-1.04-.379-1.04-.758 0-.43.442-.615 1.296-.615.363 0 .913.051 1.413.113l.52.061.207-.953A5.743 5.743 0 0 0 26.35 34c-1.384 0-2.484.635-2.484 1.865 0 1.056.727 1.61 2.033 2.01l.667.204c.756.236 1.04.39 1.04.83 0 .554-.46.85-1.118.85-.442 0-.933-.07-1.68-.245l-.667-.154-.343.923zm8.855-4.992h2.17v-1.189h-5.695v1.19h2.17v5.606h1.355V35.29z"/>
    </g>
</svg>
