<svg xmlns="http://www.w3.org/2000/svg" xmlns:xlink="http://www.w3.org/1999/xlink" width="48" height="48" viewBox="0 0 48 48">
    <defs>
        <path id="a" d="M9.699 6.955v6.365h1.602v-2.189h2.664V9.75h-2.664V8.366h2.952v-1.41H9.699zm11.259 3.187c0-1.987-1.404-3.283-3.078-3.283s-3.078 1.296-3.078 3.283c0 1.988 1.404 3.274 3.078 3.274s3.078-1.286 3.078-3.274zm-1.674 0c0 1.008-.504 1.604-1.404 1.604-.9 0-1.404-.596-1.404-1.604S16.98 8.53 17.88 8.53c.9 0 1.404.604 1.404 1.612zm8.01-1.555c-.36-.989-1.431-1.728-2.673-1.728-1.71 0-3.105 1.248-3.105 3.283 0 1.844 1.107 3.274 2.88 3.274.468 0 .855-.106 1.287-.374l.441-.27.252.548h1.107v-3.178c0-.201-.063-.259-.279-.259h-2.115v1.104h.828v.547c0 .068-.009.106-.081.135-.252.086-.729.144-1.08.144h-.018c-.99 0-1.548-.624-1.548-1.709 0-1.066.594-1.7 1.314-1.7.351 0 .594.087.918.298l.927.605.945-.72z"/>
    </defs>
    <g fill="none" fill-rule="evenodd" transform="translate(6 14)">
        <path fill="#FFF" stroke="#575756" stroke-width="2" d="M1 1h34v18H1z"/>
        <mask id="b" fill="#fff">
            <use xlink:href="#a"/>
        </mask>
        <path fill="#575756" d="M7.449 4.46h22.284v11.356H7.449z" mask="url(#b)"/>
    </g>
</svg>
