<svg xmlns="http://www.w3.org/2000/svg" width="48" height="48" viewBox="0 0 48 48">
    <path fill="#959595" fill-rule="evenodd" d="M14.713 29C10.46 29 7 26.047 7 22.145c0-3.684 3.146-6.778 7.162-7.044.998-.072 2.263.15 2.263.15.84.237 2.008.623 2.803 1.273a.468.468 0 0 0 .69-.1.553.553 0 0 0-.092-.74c-.718-.586-1.651-.978-2.464-1.246l.015-.11c.48-3.53 3.696-6.122 7.649-6.165l.11-.002c3.904.003 7.13 2.486 8.24 6.331-2.568.787-4.435 2.696-5.16 5.306-.078.279.07.573.331.656a.459.459 0 0 0 .141.023.498.498 0 0 0 .472-.378c.673-2.423 2.413-4.093 4.897-4.705l.488-.112c1.495-.385 2.971-.17 2.971-.17 4.21.513 5.513 4.437 5.483 6.261C42.935 26.525 38.592 29 34.334 29H14.713z"/>
</svg>
