<?xml version="1.0" encoding="UTF-8" standalone="no"?>
<!-- Created with Inkscape (http://www.inkscape.org/) -->

<svg
   xmlns:dc="http://purl.org/dc/elements/1.1/"
   xmlns:cc="http://creativecommons.org/ns#"
   xmlns:rdf="http://www.w3.org/1999/02/22-rdf-syntax-ns#"
   xmlns:svg="http://www.w3.org/2000/svg"
   xmlns="http://www.w3.org/2000/svg"
   xmlns:sodipodi="http://sodipodi.sourceforge.net/DTD/sodipodi-0.dtd"
   xmlns:inkscape="http://www.inkscape.org/namespaces/inkscape"
   width="15.936913mm"
   height="25.498777mm"
   viewBox="0 0 15.936913 25.498777"
   version="1.1"
   id="svg4042"
   inkscape:version="0.92.5 (2060ec1f9f, 2020-04-08)"
   sodipodi:docname="sunscreen.svg">
  <defs
     id="defs4036">
    <clipPath
       clipPathUnits="userSpaceOnUse"
       id="clipPath176">
      <path
         d="M 476.824,317 H 522 v -72.28 h -45.176 z"
         id="path174"
         inkscape:connector-curvature="0" />
    </clipPath>
  </defs>
  <sodipodi:namedview
     id="base"
     pagecolor="#000000"
     bordercolor="#666666"
     borderopacity="1.0"
     inkscape:pageopacity="0.0"
     inkscape:pageshadow="2"
     inkscape:zoom="3.7215596"
     inkscape:cx="24.032538"
     inkscape:cy="-10.037998"
     inkscape:document-units="mm"
     inkscape:current-layer="layer1"
     showgrid="false"
     inkscape:window-width="2560"
     inkscape:window-height="1472"
     inkscape:window-x="0"
     inkscape:window-y="54"
     inkscape:window-maximized="1" />
  <metadata
     id="metadata4039">
    <rdf:RDF>
      <cc:Work
         rdf:about="">
        <dc:format>image/svg+xml</dc:format>
        <dc:type
           rdf:resource="http://purl.org/dc/dcmitype/StillImage" />
        <dc:title />
      </cc:Work>
    </rdf:RDF>
  </metadata>
  <g
     inkscape:label="Layer 1"
     inkscape:groupmode="layer"
     id="layer1"
     transform="translate(-105.4244,-250.98871)">
    <g
       transform="matrix(0.35277777,0,0,-0.35277777,-62.788681,362.81926)"
       style="display:inline"
       id="g170">
      <g
         id="g172" />
      <g
         id="g188">
        <g
           style="opacity:0.80000299"
           id="g186"
           clip-path="url(#clipPath176)">
          <g
             id="g180"
             transform="translate(508.4473,312.4824)">
            <path
               inkscape:connector-curvature="0"
               id="path178"
               style="fill:#FFFFFF;fill-opacity:1;fill-rule:nonzero;stroke:none"
               d="m 0,0 c 0,2.494 -2.023,4.518 -4.518,4.518 h -9.035 C -16.047,4.518 -18.07,2.494 -18.07,0 V -13.553 H 0 Z" />
          </g>
          <g
             id="g184"
             transform="translate(515.6055,268.2744)">
            <path
               inkscape:connector-curvature="0"
               id="path182"
               style="fill:#FFFFFF;fill-opacity:1;fill-rule:nonzero;stroke:none"
               d="m 0,0 h -3.851 c 0.044,0.417 0.069,0.923 0.069,1.353 -10e-4,0.422 -0.027,0.937 -0.075,1.352 h 3.844 C 0.697,2.712 1.279,2.056 1.283,1.353 1.283,0.656 0.71,0.007 0,0 m -3.817,-10.966 c -0.493,-0.49 -1.357,-0.544 -1.865,-0.048 l -2.722,2.722 c 0.326,0.267 0.7,0.605 1.005,0.909 0.297,0.3 0.643,0.683 0.901,1.01 l 2.719,-2.72 c 0.509,-0.497 0.457,-1.373 -0.038,-1.873 m -12.32,1.57 c -5.911,0 -10.703,4.792 -10.703,10.704 0,5.91 4.792,10.703 10.703,10.703 5.911,0 10.703,-4.793 10.703,-10.703 0,-5.912 -4.793,-10.704 -10.703,-10.704 m 1.353,-5.374 c 0.005,-1.206 -1.353,-1.297 -1.353,-1.297 -0.695,0 -1.345,0.573 -1.351,1.281 v 4.186 c 0.39,-0.04 0.95,-0.061 1.348,-0.061 0,0 0.943,0.03 1.356,0.079 z m -8.836,6.726 -10e-4,0.001 -2.959,-2.961 c -0.85,-0.857 -1.873,0.038 -1.873,0.038 -0.493,0.491 -0.547,1.356 -0.051,1.862 l 2.959,2.96 c 0.25,-0.304 0.629,-0.715 0.91,-0.997 0,0 0.689,-0.644 1.014,-0.902 h 10e-4 z m -9.937,9.396 c 0,0.695 0.575,1.344 1.282,1.352 h 4.187 c -0.04,-0.393 -0.062,-0.95 -0.062,-1.349 0,0 0.031,-0.942 0.079,-1.355 v -0.001 h -4.187 c -1.206,-0.004 -1.299,1.353 -1.299,1.353 m 5.103,12.318 c 0.491,0.491 1.356,0.545 1.862,0.049 l 2.961,-2.96 c -0.306,-0.25 -0.717,-0.628 -0.998,-0.911 0,0 -0.644,-0.688 -0.903,-1.015 l -0.001,0.003 -2.959,2.96 c -0.857,0.849 0.038,1.874 0.038,1.874 m 10.966,3.806 c -0.008,0.712 0.647,1.292 1.351,1.295 0.696,0 1.345,-0.573 1.353,-1.283 V 17.486 13.64 c -0.419,0.042 -0.923,0.066 -1.353,0.066 -0.424,-0.002 -0.938,-0.027 -1.351,-0.075 z M -5.692,13.71 c 0.498,0.509 1.373,0.457 1.872,-0.039 0.493,-0.492 0.547,-1.357 0.05,-1.864 L -6.491,9.084 c -0.267,0.328 -0.606,0.702 -0.909,1.006 -0.301,0.297 -0.684,0.642 -1.01,0.901 z m -1.466,12.428 h -18.071 c -7.485,0 -13.552,-6.068 -13.552,-13.553 v -31.622 c 0,-2.495 2.023,-4.518 4.517,-4.518 H 1.877 c 2.494,0 4.518,2.023 4.518,4.518 v 31.622 c 0,7.485 -6.068,13.553 -13.553,13.553" />
          </g>
        </g>
      </g>
    </g>
  </g>
</svg>
