<?xml version="1.0" encoding="UTF-8" standalone="no"?>
<svg
   xmlns:dc="http://purl.org/dc/elements/1.1/"
   xmlns:cc="http://creativecommons.org/ns#"
   xmlns:rdf="http://www.w3.org/1999/02/22-rdf-syntax-ns#"
   xmlns:svg="http://www.w3.org/2000/svg"
   xmlns="http://www.w3.org/2000/svg"
   xmlns:sodipodi="http://sodipodi.sourceforge.net/DTD/sodipodi-0.dtd"
   xmlns:inkscape="http://www.inkscape.org/namespaces/inkscape"
   id="svg3977"
   version="1.1"
   viewBox="0 0 26.982412 23.980421"
   height="23.980421mm"
   width="26.982412mm"
   sodipodi:docname="umbrella.svg"
   inkscape:version="0.92.5 (2060ec1f9f, 2020-04-08)">
  <sodipodi:namedview
     pagecolor="#ffffff"
     bordercolor="#666666"
     borderopacity="1"
     objecttolerance="10"
     gridtolerance="10"
     guidetolerance="10"
     inkscape:pageopacity="0"
     inkscape:pageshadow="2"
     inkscape:window-width="2560"
     inkscape:window-height="1472"
     id="namedview14"
     showgrid="false"
     inkscape:zoom="0.2102413"
     inkscape:cx="-813.4225"
     inkscape:cy="-310.5657"
     inkscape:window-x="0"
     inkscape:window-y="54"
     inkscape:window-maximized="1"
     inkscape:current-layer="svg3977" />
  <defs
     id="defs3971">
    <clipPath
       id="clipPath196"
       clipPathUnits="userSpaceOnUse">
      <path
         id="path194"
         d="m 571.765,314 h 76.486 v -67.976 h -76.486 z"
         inkscape:connector-curvature="0" />
    </clipPath>
  </defs>
  <metadata
     id="metadata3974">
    <rdf:RDF>
      <cc:Work
         rdf:about="">
        <dc:format>image/svg+xml</dc:format>
        <dc:type
           rdf:resource="http://purl.org/dc/dcmitype/StillImage" />
        <dc:title></dc:title>
      </cc:Work>
    </rdf:RDF>
  </metadata>
  <g
     id="layer1"
     transform="translate(-62.859986,-42.34907)">
    <g
       id="g190"
       style="display:inline"
       transform="matrix(0.35277777,0,0,-0.35277777,-138.84601,153.12129)">
      <g
         id="g192" />
      <g
         id="g204">
        <g
           clip-path="url(#clipPath196)"
           id="g202"
           style="opacity:0.80000299">
          <g
             transform="translate(605.7578,273.937)"
             id="g200">
            <path
               d="m 0,0 v -17.302 c 0,-1.169 -0.956,-2.125 -2.124,-2.125 -1.036,0 -1.754,0.704 -2.005,1.422 -0.784,2.216 -3.201,3.371 -5.418,2.588 -2.218,-0.783 -3.374,-3.213 -2.59,-5.417 1.487,-4.237 5.524,-7.079 10.013,-7.079 5.856,0 10.623,4.767 10.623,10.623 V 0.013 C 7.291,1.062 5.87,1.819 4.25,1.819 2.617,1.805 1.275,1.182 0,0 M 42.454,2.775 C 38.656,20.874 24.075,31.75 8.499,33.436 v 2.377 c 0,2.351 -1.899,4.25 -4.249,4.25 C 1.898,40.063 0,38.164 0,35.813 V 33.436 C -15.63,31.75 -30.076,20.874 -33.954,2.775 c -0.293,-1.34 1.128,-2.829 2.483,-1.514 6.905,7.303 14.301,6.958 21.061,-4.913 0.704,-1.262 1.978,-1.142 2.615,0 2.683,4.701 5.964,9.721 12.045,9.721 7.768,0 11.713,-9.136 12.044,-9.721 0.637,-1.142 1.912,-1.262 2.615,0 6.773,11.885 14.222,12.138 21.061,4.913 1.369,-1.327 2.776,0.174 2.484,1.514"
               style="fill:#FFFFFF;fill-opacity:1;fill-rule:nonzero;stroke:none"
               id="path198"
               inkscape:connector-curvature="0" />
          </g>
        </g>
      </g>
    </g>
  </g>
</svg>
